<svg xmlns="http://www.w3.org/2000/svg" id="Layer_1" data-name="Layer 1" viewBox="0 0 450 300"><defs><style>      .cls-1 {        fill: #843511;      }      .cls-1, .cls-2, .cls-3, .cls-4, .cls-5 {        stroke-width: 0px;      }      .cls-2 {        fill: #fff;      }      .cls-3 {        fill: #f6b40e;      }      .cls-4 {        fill: #85340a;      }      .cls-5 {        fill: #74acdf;      }    </style></defs><rect class="cls-5" y="200" width="450" height="100"></rect><rect class="cls-5" width="450" height="100"></rect><rect class="cls-2" y="100" width="450" height="100"></rect><g><path class="cls-3" d="m235.74,175.99l-4.78-10.45c-.31.12-.61.24-.93.34l10.14,22.09s.29.71.77.52c.47-.2.18-.91.18-.91l-8.45-22.8c-.3.16-.61.31-.93.45l4,10.76Z"></path><path class="cls-3" d="m230.33,177.43c.53-4.38-1.81-6.77-2.55-11.02-.36.06-.72.13-1.09.17.73,3.97,2.97,6.81,2.6,10.93-.45,5.05,2.32,7.91,2.96,9.87.64,1.96-.7,3.14-.12,3.42.58.28,1.84-1.27,1.43-4.07s-2.53-3.62-2.03-9.79c.42-5.24-1.68-7.07-1.88-10.95-.32.09-.65.18-.98.25.35,4.81,2.86,7.64,1.65,11.19Z"></path><path class="cls-3" d="m219.43,177.39c2.17-3.84.92-6.94,1.86-11.15-.36-.08-.71-.17-1.06-.27-.85,3.95.14,7.43-1.78,11.1-2.35,4.49-.88,8.19-1.04,10.26-.16,2.06-1.84,2.63-1.42,3.11.43.48,2.19-.47,2.88-3.21.69-2.74-.95-4.32,1.87-9.83,2.39-4.68,1.15-7.18,2.45-10.83-.34-.04-.67-.1-1-.15-1.52,4.58-.28,8.16-2.76,10.98Z"></path><path class="cls-3" d="m224.98,178.13l-.42-11.48c-.33,0-.66-.02-.99-.05l.91,24.3s0,.77.51.77c.51,0,.51-.77.51-.77l.91-24.3c-.34.03-.68.04-1.03.05l-.42,11.48Z"></path><path class="cls-3" d="m214.22,175.98l4-10.76c-.3-.13-.6-.28-.89-.43l-8.45,22.8s-.3.71.18.91c.47.2.77-.51.77-.51l10.14-22.09c-.33-.1-.65-.23-.97-.35l-4.78,10.44Z"></path><path class="cls-3" d="m209.37,173.17c3.47-2.72,3.51-6.06,5.99-9.59-.3-.21-.6-.43-.88-.66-2.3,3.33-2.71,6.92-5.89,9.57-3.89,3.25-3.95,7.23-4.89,9.08-.93,1.84-2.71,1.73-2.5,2.33.21.61,2.2.4,3.89-1.86,1.68-2.27.77-4.35,5.49-8.36,4-3.4,3.81-6.19,6.41-9.07-.3-.16-.58-.35-.87-.53-3.16,3.64-3.38,7.43-6.75,9.08Z"></path><path class="cls-3" d="m205.1,169.87l7.82-8.42c-.23-.24-.45-.48-.66-.73l-16.54,17.83s-.54.54-.18.91c.36.36.91-.18.91-.18l17.83-16.54c-.26-.22-.51-.46-.76-.69l-8.41,7.82Z"></path><path class="cls-3" d="m201.69,165.43c4.25-1.18,5.56-4.26,9.2-6.57-.19-.31-.39-.62-.57-.94-3.39,2.19-5.15,5.35-9.1,6.59-4.84,1.51-6.42,5.17-7.99,6.52-1.57,1.35-3.17.56-3.2,1.2-.04.64,1.88,1.21,4.3-.23,2.42-1.45,2.38-3.73,8.27-5.63,5-1.61,5.89-4.26,9.39-5.93-.21-.26-.41-.54-.61-.81-4.31,2.16-5.97,5.56-9.71,5.81Z"></path><path class="cls-4" d="m231.74,165.23c-.26.11-.52.21-.78.31l4.78,10.45-4-10.76Z"></path><path class="cls-4" d="m230.33,177.43c1.2-3.55-1.31-6.38-1.65-11.19-.29.07-.59.12-.89.17.74,4.25,3.08,6.64,2.55,11.02Z"></path><path class="cls-4" d="m225.4,166.65c-.13,0-.26.02-.4.02-.15,0-.29-.02-.44-.02l.42,11.48.42-11.48Z"></path><path class="cls-4" d="m222.18,166.41c-.3-.05-.6-.11-.89-.17-.94,4.21.31,7.31-1.86,11.15,2.47-2.82,1.23-6.4,2.76-10.98Z"></path><path class="cls-4" d="m209.37,173.17c3.36-1.66,3.59-5.44,6.75-9.08-.26-.16-.51-.33-.76-.51-2.48,3.53-2.52,6.87-5.99,9.59Z"></path><path class="cls-4" d="m219,165.53c-.26-.1-.52-.2-.78-.32l-4,10.76,4.78-10.44Z"></path><path class="cls-4" d="m213.51,162.05c-.2-.19-.4-.39-.59-.59l-7.82,8.42,8.41-7.82Z"></path><path class="cls-4" d="m211.4,159.62c-.18-.25-.34-.5-.5-.76-3.64,2.31-4.96,5.39-9.2,6.57,3.74-.25,5.4-3.65,9.71-5.81Z"></path><path class="cls-3" d="m197.57,155.33c4.38.53,6.77-1.81,11.02-2.55-.06-.36-.13-.72-.17-1.09-3.97.73-6.8,2.97-10.93,2.6-5.05-.45-7.91,2.32-9.87,2.96-1.96.64-3.14-.7-3.42-.12-.28.58,1.27,1.84,4.07,1.43,2.79-.41,3.62-2.53,9.79-2.03,5.24.42,7.07-1.68,10.95-1.88-.09-.32-.18-.65-.25-.98-4.81.35-7.64,2.86-11.19,1.65Z"></path><path class="cls-3" d="m199.01,160.74l10.45-4.78c-.12-.31-.24-.61-.34-.93l-22.09,10.14s-.71.29-.52.77c.2.47.91.18.91.18l22.8-8.45c-.16-.3-.31-.61-.45-.93l-10.76,4Z"></path><path class="cls-3" d="m197.61,144.43c3.84,2.17,6.94.92,11.15,1.86.08-.36.17-.71.27-1.06-3.95-.85-7.43.14-11.1-1.78-4.49-2.35-8.19-.88-10.26-1.04-2.06-.16-2.63-1.84-3.11-1.42-.48.43.47,2.19,3.21,2.88,2.74.69,4.32-.95,9.82,1.87,4.68,2.39,7.18,1.15,10.83,2.45.04-.34.1-.67.15-1-4.58-1.52-8.16-.28-10.98-2.76Z"></path><path class="cls-3" d="m196.87,149.98l11.48-.42c0-.33.02-.66.05-.99l-24.3.91s-.77,0-.77.51c0,.51.77.51.77.51l24.3.91c-.03-.34-.04-.68-.05-1.03l-11.48-.42Z"></path><path class="cls-3" d="m199.02,139.22l10.76,4c.13-.3.28-.6.43-.89l-22.8-8.45s-.71-.29-.91.18c-.2.47.51.77.51.77l22.09,10.14c.1-.33.23-.65.35-.97l-10.44-4.78Z"></path><path class="cls-3" d="m201.83,134.37c2.72,3.47,6.06,3.51,9.59,5.99.21-.3.43-.6.66-.88-3.33-2.3-6.92-2.71-9.57-5.89-3.25-3.89-7.23-3.95-9.08-4.89-1.84-.93-1.73-2.71-2.33-2.5-.61.21-.4,2.2,1.86,3.89,2.27,1.68,4.35.77,8.36,5.49,3.4,4,6.19,3.81,9.07,6.41.16-.3.35-.58.53-.87-3.64-3.16-7.43-3.38-9.08-6.75Z"></path><path class="cls-3" d="m205.13,130.1l8.42,7.82c.24-.23.48-.45.73-.66l-17.83-16.54s-.54-.54-.91-.18c-.36.36.18.91.18.91l16.54,17.83c.22-.26.46-.51.69-.76l-7.82-8.41Z"></path><path class="cls-3" d="m209.57,126.69c1.18,4.25,4.26,5.56,6.57,9.2.31-.19.62-.39.94-.57-2.19-3.39-5.35-5.15-6.59-9.1-1.51-4.84-5.17-6.42-6.52-7.99-1.35-1.57-.56-3.17-1.2-3.2-.64-.04-1.21,1.88.23,4.3,1.45,2.42,3.73,2.38,5.63,8.27,1.61,5,4.26,5.89,5.93,9.39.26-.21.54-.41.81-.61-2.16-4.31-5.56-5.97-5.81-9.71Z"></path><path class="cls-4" d="m209.77,156.74c-.11-.26-.21-.52-.31-.78l-10.45,4.78,10.76-4Z"></path><path class="cls-4" d="m197.57,155.33c3.55,1.2,6.38-1.31,11.19-1.65-.07-.29-.12-.59-.17-.89-4.25.74-6.64,3.08-11.02,2.55Z"></path><path class="cls-4" d="m208.59,147.18c.05-.3.11-.6.17-.89-4.21-.94-7.31.31-11.15-1.86,2.82,2.47,6.4,1.23,10.98,2.76Z"></path><path class="cls-4" d="m208.35,150.4c0-.13-.02-.26-.02-.4,0-.15.02-.29.02-.44l-11.48.42,11.48.42Z"></path><path class="cls-4" d="m209.47,144c.1-.26.2-.52.32-.78l-10.76-4,10.44,4.78Z"></path><path class="cls-4" d="m201.83,134.37c1.66,3.36,5.44,3.59,9.08,6.75.16-.26.33-.51.5-.76-3.53-2.48-6.87-2.52-9.59-5.99Z"></path><path class="cls-4" d="m212.95,138.51c.19-.2.39-.4.59-.59l-8.42-7.82,7.82,8.41Z"></path><path class="cls-4" d="m215.38,136.4c.25-.18.5-.34.76-.5-2.31-3.64-5.39-4.96-6.57-9.2.25,3.74,3.65,5.4,5.81,9.71Z"></path><path class="cls-3" d="m219.67,122.57c-.53,4.38,1.81,6.77,2.55,11.02.36-.06.72-.13,1.09-.17-.73-3.97-2.97-6.81-2.6-10.93.45-5.05-2.32-7.91-2.96-9.87-.64-1.96.7-3.14.12-3.42-.58-.28-1.84,1.27-1.43,4.07s2.53,3.62,2.03,9.79c-.42,5.24,1.68,7.07,1.88,10.95.32-.09.65-.18.98-.25-.35-4.81-2.86-7.64-1.65-11.19Z"></path><path class="cls-3" d="m214.26,124.01l4.78,10.45c.31-.12.61-.24.93-.34l-10.14-22.09s-.29-.71-.77-.52c-.47.2-.18.91-.18.91l8.45,22.8c.3-.16.61-.31.93-.45l-4-10.76Z"></path><path class="cls-3" d="m230.57,122.61c-2.17,3.84-.92,6.94-1.86,11.15.36.08.71.17,1.06.27.85-3.95-.14-7.43,1.78-11.1,2.35-4.49.88-8.19,1.04-10.25.16-2.06,1.84-2.63,1.42-3.11-.43-.48-2.19.47-2.88,3.21-.69,2.74.95,4.32-1.87,9.82-2.39,4.68-1.15,7.18-2.45,10.83.34.04.67.1,1,.15,1.52-4.58.28-8.16,2.76-10.98Z"></path><path class="cls-3" d="m225.02,121.87l.42,11.48c.33,0,.66.02.99.05l-.91-24.3s0-.77-.51-.77c-.51,0-.51.77-.51.77l-.91,24.3c.34-.03.68-.04,1.03-.05l.42-11.48Z"></path><path class="cls-3" d="m235.78,124.02l-4,10.76c.3.13.6.28.89.43l8.45-22.8s.3-.71-.18-.91c-.47-.2-.77.51-.77.51l-10.14,22.09c.33.1.65.23.97.35l4.78-10.44Z"></path><path class="cls-3" d="m240.63,126.83c-3.47,2.72-3.51,6.06-5.99,9.59.3.21.6.43.88.66,2.3-3.33,2.71-6.92,5.89-9.57,3.89-3.25,3.95-7.23,4.89-9.08.93-1.84,2.71-1.73,2.5-2.33-.21-.61-2.2-.4-3.89,1.86-1.68,2.27-.77,4.35-5.49,8.36-4,3.4-3.81,6.19-6.41,9.07.3.16.58.35.87.53,3.16-3.64,3.38-7.43,6.75-9.08Z"></path><path class="cls-3" d="m244.9,130.13l-7.82,8.42c.23.24.45.48.66.73l16.54-17.83s.54-.54.18-.91c-.36-.36-.91.18-.91.18l-17.83,16.54c.26.22.51.46.76.69l8.41-7.82Z"></path><path class="cls-3" d="m248.31,134.57c-4.25,1.18-5.56,4.26-9.2,6.57.19.31.39.62.57.94,3.39-2.19,5.15-5.35,9.1-6.59,4.84-1.51,6.42-5.17,7.99-6.52,1.57-1.35,3.17-.56,3.2-1.2.04-.64-1.88-1.21-4.3.23-2.42,1.45-2.38,3.73-8.27,5.63-5,1.61-5.89,4.26-9.39,5.93.21.26.41.54.61.81,4.31-2.16,5.97-5.56,9.71-5.81Z"></path><path class="cls-4" d="m219.67,122.57c-1.2,3.55,1.31,6.38,1.65,11.19.29-.07.59-.12.89-.17-.74-4.25-3.08-6.64-2.55-11.02Z"></path><path class="cls-4" d="m218.26,134.77c.26-.11.52-.21.78-.31l-4.78-10.45,4,10.76Z"></path><path class="cls-4" d="m224.6,133.35c.13,0,.26-.02.4-.02.15,0,.29.02.44.02l-.42-11.48-.42,11.48Z"></path><path class="cls-4" d="m227.82,133.59c.3.05.6.11.89.17.94-4.21-.31-7.31,1.86-11.15-2.47,2.82-1.23,6.4-2.76,10.98Z"></path><path class="cls-4" d="m231,134.47c.26.1.52.2.78.32l4-10.76-4.78,10.44Z"></path><path class="cls-4" d="m240.63,126.83c-3.36,1.66-3.59,5.44-6.75,9.08.26.16.51.33.76.51,2.48-3.53,2.52-6.87,5.99-9.59Z"></path><path class="cls-4" d="m236.49,137.95c.2.19.4.39.59.59l7.82-8.42-8.41,7.82Z"></path><path class="cls-4" d="m238.6,140.38c.18.25.34.5.5.76,3.64-2.31,4.96-5.39,9.2-6.57-3.74.25-5.4,3.65-9.71,5.81Z"></path><path class="cls-3" d="m252.43,144.67c-4.38-.53-6.77,1.81-11.02,2.55.06.36.13.72.17,1.09,3.97-.73,6.8-2.97,10.93-2.6,5.05.45,7.91-2.32,9.87-2.96,1.96-.64,3.14.7,3.42.12.28-.58-1.27-1.84-4.07-1.43-2.79.41-3.62,2.53-9.79,2.03-5.24-.42-7.07,1.68-10.95,1.88.09.32.18.65.25.98,4.81-.35,7.64-2.86,11.19-1.65Z"></path><path class="cls-3" d="m250.99,139.26l-10.45,4.78c.12.31.24.61.34.93l22.09-10.14s.71-.29.52-.77c-.2-.47-.91-.18-.91-.18l-22.8,8.45c.16.3.31.61.45.93l10.76-4Z"></path><path class="cls-3" d="m265.9,149.49l-24.3-.91c.03.34.04.68.05,1.03l11.48.42-11.48.42c0,.33-.02.66-.05.99l24.3-.91s.77,0,.77-.51c0-.51-.77-.51-.77-.51Z"></path><path class="cls-3" d="m252.39,155.57c-3.84-2.17-6.94-.92-11.15-1.86-.08.36-.17.71-.27,1.06,3.95.85,7.43-.14,11.1,1.78,4.49,2.35,8.19.88,10.26,1.04,2.06.16,2.63,1.84,3.11,1.42.48-.43-.47-2.19-3.21-2.88-2.74-.69-4.32.95-9.82-1.87-4.68-2.39-7.18-1.15-10.83-2.45-.04.34-.1.67-.15,1,4.58,1.52,8.16.28,10.98,2.76Z"></path><path class="cls-3" d="m248.17,165.63c-2.72-3.47-6.06-3.51-9.59-5.99-.21.3-.43.6-.66.88,3.33,2.3,6.92,2.71,9.57,5.89,3.25,3.89,7.23,3.95,9.08,4.89,1.84.93,1.73,2.71,2.33,2.5.61-.21.4-2.2-1.86-3.89-2.27-1.68-4.35-.77-8.36-5.49-3.4-4-6.19-3.81-9.07-6.41-.16.3-.35.58-.53.87,3.64,3.16,7.43,3.38,9.08,6.75Z"></path><path class="cls-3" d="m250.98,160.78l-10.76-4c-.13.3-.28.6-.43.89l22.8,8.45s.71.29.91-.18c.2-.47-.51-.77-.51-.77l-22.09-10.14c-.1.33-.23.65-.35.97l10.44,4.78Z"></path><path class="cls-3" d="m244.87,169.9l-8.42-7.82c-.24.23-.48.45-.73.66l17.83,16.54s.54.54.91.18c.36-.36-.18-.91-.18-.91l-16.54-17.83c-.22.26-.46.51-.69.76l7.82,8.41Z"></path><path class="cls-3" d="m240.43,173.31c-1.18-4.25-4.26-5.56-6.57-9.2-.31.19-.62.39-.94.57,2.19,3.39,5.35,5.15,6.59,9.1,1.51,4.84,5.17,6.42,6.52,7.99,1.35,1.57.56,3.17,1.2,3.2.64.04,1.21-1.88-.23-4.3-1.45-2.42-3.73-2.38-5.63-8.27-1.61-5-4.26-5.89-5.93-9.39-.26.21-.54.41-.81.61,2.16,4.31,5.56,5.97,5.81,9.71Z"></path><path class="cls-4" d="m252.43,144.67c-3.55-1.2-6.38,1.31-11.19,1.65.07.29.12.59.17.89,4.25-.74,6.64-3.08,11.02-2.55Z"></path><path class="cls-4" d="m240.23,143.26c.11.26.21.52.31.78l10.45-4.78-10.76,4Z"></path><path class="cls-4" d="m241.41,152.81c-.05.3-.11.6-.17.89,4.21.94,7.31-.31,11.15,1.86-2.82-2.47-6.4-1.23-10.98-2.76Z"></path><path class="cls-4" d="m241.64,150.44l11.48-.42-11.48-.42c0,.13.02.26.02.4,0,.15-.02.29-.02.44Z"></path><path class="cls-4" d="m248.17,165.63c-1.66-3.36-5.44-3.59-9.08-6.75-.16.26-.33.51-.51.76,3.53,2.48,6.87,2.52,9.59,5.99Z"></path><path class="cls-4" d="m240.53,156c-.1.26-.2.52-.32.78l10.76,4-10.44-4.78Z"></path><path class="cls-4" d="m234.62,163.6c-.25.18-.5.34-.76.5,2.31,3.64,5.39,4.96,6.57,9.2-.25-3.74-3.65-5.4-5.81-9.71Z"></path><path class="cls-4" d="m237.05,161.49c-.19.2-.39.4-.59.59l8.42,7.82-7.82-8.41Z"></path><path class="cls-3" d="m225,157.91h-.02c-1.01,0-1.53-.75-3.75-.28,0,0,.02,0,.03,0h0,0c2.23-.03,1.57,1.42,3.73,1.42h.02c2.15,0,1.53-1.44,3.71-1.43-2.19-.45-2.71.29-3.71.29Z"></path><path class="cls-3" d="m218.17,147.69c0-.4.21-.73.52-.94-.71.12-1.4.47-1.86,1.2.56.45,1.27.71,1.99.76-.38-.19-.65-.57-.65-1.02Z"></path><path class="cls-3" d="m220.48,147.69c0,.36-.18.68-.44.89.51-.16,1-.44,1.41-.88-.11-.37-.69-.74-1.43-.9.28.21.47.53.47.9Z"></path><path class="cls-3" d="m231.8,147.69c0,.43-.24.78-.58.98.64-.12,1.24-.43,1.74-.98-.12-.41-.83-.82-1.69-.95.31.21.53.54.53.95Z"></path><path class="cls-3" d="m229.49,147.69c0-.36.18-.67.44-.88-.61.16-1.19.51-1.59,1.15.5.4,1.13.66,1.78.75-.37-.19-.63-.57-.63-1.01Z"></path><path class="cls-3" d="m241.67,150c0-.13-.02-.26-.02-.4,0-.35-.02-.69-.05-1.03,0-.09,0-.18-.01-.27-.04-.37-.1-.73-.17-1.09-.05-.3-.1-.6-.17-.89-.07-.33-.16-.66-.25-.98-.04-.12-.07-.25-.1-.37-.1-.32-.22-.62-.34-.93-.1-.26-.2-.52-.31-.78-.14-.31-.29-.62-.45-.93-.04-.08-.08-.17-.12-.25-.17-.32-.37-.63-.57-.94-.16-.26-.33-.51-.5-.76-.2-.28-.4-.55-.61-.81-.08-.1-.16-.2-.24-.3-.21-.25-.44-.49-.66-.73-.19-.2-.39-.4-.59-.59-.25-.24-.5-.47-.76-.69-.07-.06-.14-.12-.21-.18-.28-.23-.58-.45-.88-.66-.25-.18-.5-.34-.76-.51-.29-.18-.57-.36-.87-.53-.11-.06-.23-.12-.35-.18-.29-.15-.59-.29-.89-.43-.25-.11-.51-.22-.78-.32-.32-.12-.64-.25-.97-.35-.09-.03-.18-.05-.27-.08-.35-.1-.71-.19-1.06-.27-.29-.07-.59-.12-.89-.17-.33-.06-.66-.12-1-.15-.13-.01-.26-.02-.39-.03-.33-.03-.66-.04-.99-.05-.15,0-.29-.02-.44-.02-.13,0-.26.02-.4.02-.35,0-.69.02-1.03.05-.09,0-.18,0-.27.01-.37.04-.73.1-1.09.17-.3.05-.6.1-.89.17-.33.07-.66.16-.98.25-.12.04-.25.07-.37.1-.32.1-.62.22-.93.34-.26.1-.52.2-.78.31-.31.14-.62.29-.93.45-.08.04-.17.08-.25.12-.32.17-.63.37-.94.57-.26.16-.51.33-.76.5-.28.2-.55.4-.81.61-.1.08-.2.16-.3.24-.25.21-.49.44-.73.66-.2.19-.4.39-.59.59-.24.25-.47.5-.69.76-.06.07-.12.14-.18.21-.23.28-.45.58-.66.88-.18.25-.34.5-.5.76-.18.28-.36.57-.53.87-.06.11-.12.23-.18.35-.15.29-.29.59-.43.89-.11.25-.22.51-.32.78-.12.32-.25.64-.35.97-.03.09-.05.18-.08.27-.1.35-.19.71-.27,1.06-.07.29-.12.59-.17.89-.06.33-.12.66-.15,1-.01.13-.02.26-.03.39-.03.33-.04.66-.05.99,0,.15-.02.29-.02.44,0,.13.02.26.02.4,0,.35.02.69.05,1.03,0,.09,0,.18.01.27.04.37.1.73.17,1.09.05.3.1.6.17.89.07.33.16.66.25.98.04.12.07.25.1.37.1.32.22.62.34.93.1.26.2.52.31.78.14.31.29.62.45.93.04.08.08.17.12.25.17.32.37.63.57.94.16.26.33.51.5.76.2.28.4.55.61.81.08.1.16.2.24.3.21.25.44.49.66.73.19.2.39.4.59.59.25.24.5.47.76.69.07.06.14.12.21.18.28.23.58.45.88.66.25.18.5.34.76.51.29.18.57.36.87.53.11.06.23.12.35.18.29.15.59.29.89.43.25.11.51.22.78.32.32.12.64.25.97.35.09.03.18.05.27.08.35.1.71.19,1.06.27.29.07.59.12.89.17.33.06.66.12,1,.15.13.01.26.02.39.03.33.03.66.04.99.05.15,0,.29.02.44.02.13,0,.26-.02.4-.02.35,0,.69-.02,1.03-.05.09,0,.18,0,.27-.01.37-.04.73-.1,1.09-.17.3-.05.6-.1.89-.17.33-.07.66-.16.98-.25.12-.04.25-.07.37-.1.32-.1.62-.22.93-.34.26-.1.52-.2.78-.31.31-.14.62-.29.93-.45.08-.04.17-.08.25-.12.32-.17.63-.37.94-.57.26-.16.51-.33.76-.5.28-.2.55-.4.81-.61.1-.08.2-.16.3-.24.25-.21.49-.44.73-.66.2-.19.4-.39.59-.59.24-.25.47-.5.69-.76.06-.07.12-.14.18-.21.23-.28.45-.58.66-.88.18-.25.34-.5.51-.76.18-.28.36-.57.53-.87.06-.11.12-.23.18-.35.15-.29.29-.59.43-.89.11-.25.22-.51.32-.78.12-.32.25-.64.35-.97.03-.09.05-.18.08-.27.1-.35.19-.71.27-1.06.07-.29.12-.59.17-.89.06-.33.12-.66.15-1,.01-.13.02-.26.03-.39.03-.33.04-.66.05-.99,0-.15.02-.29.02-.44Zm-14.19,4.59c-.38,0-.72-.18-.94-.49-.44.33-1.06.37-1.39.38-.03,0-.1,0-.15,0-.33,0-.94-.04-1.39-.38-.22.31-.56.49-.94.49-.64,0-1.16-.51-1.16-1.14,0-.56.39-1.04.94-1.14h0c-.31.11-.51.41-.51.73,0,.42.34.77.77.77s.74-.32.77-.73c.13.25.62.99,1.59,1.03.97-.04,1.47-.78,1.59-1.03.02.41.36.73.77.73s.77-.34.77-.77c0-.33-.2-.62-.51-.73.55.1.94.59.94,1.14,0,.64-.53,1.14-1.16,1.14Zm-2.48,1.9h-.02c-.51,0-1.28-.63-2.18-.11-.9.51-1.4,1.02-2.04,1.27,1.15-.77,1.66-1.93,2.94-1.93.26,0,.76.14,1.28.39h.02c.51-.26,1.02-.39,1.27-.39,1.28,0,1.81,1.16,2.96,1.93-.64-.26-1.16-.76-2.06-1.27-.9-.51-1.66.11-2.17.11Zm-5.67-7.64s-.03,0-.04,0c-1.18.04-2.3-.27-2.98-.88.64-1.03,1.73-1.52,2.87-1.52h0,0,0c1.14,0,2.34.49,3.17,1.39-.87.64-1.92.95-2.93,1-.03,0-.05.02-.08.02Zm-.07-3.2h0c1.67,0,2.05.39,2.82,1.03.77.64,1.15.51,1.28.64.13.13,0,.51-.26.38-.26-.13-.77-.38-1.54-1.03-.77-.64-1.54-.64-2.31-.64-2.31,0-3.59,1.92-3.85,1.79-.26-.13,1.28-2.18,3.85-2.18Zm11.64,0c2.56,0,4.1,2.05,3.85,2.18-.26.13-1.54-1.79-3.85-1.79-.77,0-1.54,0-2.31.64-.77.64-1.28.9-1.54,1.03-.26.13-.38-.26-.26-.38.13-.13.51,0,1.28-.64.77-.64,1.15-1.03,2.82-1.03h0Zm-3.08,2.31c.64-1.03,1.73-1.52,2.87-1.52h0,0,0c1.14,0,2.34.49,3.17,1.39-1.92,1.41-4.76,1.28-6.04.13Zm.52,1.28c-1.28-.77-1.28-1.03-1.03-1.03s.51.26,1.54.77c1.03.51,2.56.51,5.13-.51h0c-2.18,1.67-4.36,1.54-5.64.77Zm7.17-2.82s0,0,0,0h0s0,0,0,0c-2.95-2.56-6.66-2.94-8.71-1.02-.5.67-.82,1.39-.96,2.14-.26,1.46.2,3.04,1.34,4.65-.13,0-.39.13-.51.26-1.02-1.95-1.38-3.95-1.04-5.85.09-.5.22-.99.4-1.46,2.82-2.31,6.66-2.56,9.48,1.28Zm-11.38-1.28c.18.48.31.96.4,1.46.33,1.9-.03,3.9-1.04,5.85-.13-.13-.38-.26-.51-.26,1.14-1.62,1.6-3.19,1.34-4.65-.13-.75-.45-1.47-.96-2.14-2.05-1.92-5.77-1.54-8.71,1.02,0,0,0,0,0,0h0s0,0,0,0c2.82-3.84,6.66-3.59,9.48-1.28Zm-7.95,3.33h0c2.56,1.03,4.1,1.03,5.13.51,1.03-.51,1.28-.77,1.54-.77s.26.26-1.03,1.03c-1.28.77-3.46.9-5.64-.77Zm8.83,11.51c-1.1,0-2.05.75-2.31,1.82,0-1.27,1.03-2.31,2.31-2.31s2.31,1.03,2.31,2.31c-.25-1.07-1.21-1.82-2.31-1.82Zm0-.52h-.02c-2.82,0-1.53-1.54-4.22-1.8.15-.01.29-.01.42-.02.93-.28,1.59-.38,2.09-.4h0,0c.84-.04,1.23.15,1.71.15h.02c.76,0,1.27-.49,3.75.24.15,0,.31.01.49.03-2.69.26-1.42,1.8-4.24,1.8Z"></path><path class="cls-1" d="m233.85,147.82c-.83-.9-2.03-1.39-3.17-1.39s-2.23.49-2.87,1.52c1.28,1.15,4.11,1.28,6.04-.13Zm-3.74.88c-.65-.09-1.27-.34-1.78-.75.4-.64.98-.99,1.59-1.15.2-.16.44-.27.72-.27.23,0,.44.09.62.21.86.13,1.57.54,1.69.95-.49.54-1.1.86-1.74.98-.17.1-.36.17-.57.17-.19,0-.37-.06-.53-.14Z"></path><path class="cls-4" d="m228.08,146.67c-.77.64-1.15.51-1.28.64-.13.13,0,.51.26.38.26-.13.77-.38,1.54-1.03.77-.64,1.54-.64,2.31-.64,2.31,0,3.59,1.92,3.85,1.79.26-.13-1.28-2.18-3.85-2.18h0c-1.67,0-2.05.39-2.82,1.03Z"></path><path class="cls-4" d="m226.02,145.13c-.18.48-.31.96-.4,1.46-.33,1.9.03,3.9,1.04,5.85.13-.13.38-.26.51-.26-1.14-1.62-1.6-3.19-1.34-4.65.13-.75.45-1.47.96-2.14,2.05-1.92,5.77-1.54,8.71,1.02-2.82-3.84-6.66-3.59-9.48-1.28Z"></path><polygon class="cls-4" points="235.51 146.41 235.51 146.41 235.51 146.41 235.51 146.41"></polygon><path class="cls-4" d="m231.8,147.69c0-.4-.22-.74-.53-.95-.18-.12-.39-.21-.62-.21-.28,0-.52.11-.72.27-.26.21-.44.52-.44.88,0,.44.26.82.63,1.01.16.08.33.14.53.14.21,0,.4-.07.57-.17.34-.2.58-.56.58-.98Z"></path><path class="cls-4" d="m233.97,148.46c-2.56,1.03-4.1,1.03-5.13.51-1.03-.51-1.28-.77-1.54-.77s-.26.26,1.03,1.03c1.28.77,3.46.9,5.64-.77h0Z"></path><path class="cls-4" d="m227.7,152.3c.31.11.51.41.51.73,0,.42-.34.77-.77.77s-.74-.32-.77-.73c-.13.25-.62.99-1.59,1.03-.97-.04-1.47-.78-1.59-1.03-.02.41-.36.73-.77.73s-.77-.34-.77-.77c0-.33.2-.62.51-.73h0c-.55.1-.94.59-.94,1.14,0,.64.53,1.14,1.16,1.14.38,0,.72-.18.94-.49.44.33,1.06.37,1.39.38.05,0,.12,0,.15,0,.33,0,.94-.04,1.39-.38.22.31.56.49.94.49.64,0,1.16-.51,1.16-1.14,0-.56-.39-1.04-.94-1.14Z"></path><path class="cls-4" d="m229.24,157.65c-1.15-.77-1.68-1.93-2.96-1.93-.26,0-.76.14-1.27.39h-.02c-.51-.26-1.02-.39-1.28-.39-1.28,0-1.79,1.16-2.94,1.93.64-.26,1.15-.76,2.04-1.27.9-.51,1.66.11,2.18.11h.02c.51,0,1.28-.62,2.17-.11.9.51,1.42,1.02,2.06,1.27Z"></path><path class="cls-4" d="m224.98,157.91h.02c1,0,1.52-.74,3.71-.29.01,0,.03,0,.04,0-2.48-.73-2.99-.24-3.75-.24h-.02c-.48,0-.86-.19-1.71-.15-.5.02-1.15.12-2.09.4.01,0,.03,0,.04,0,2.22-.47,2.74.28,3.75.28Z"></path><path class="cls-4" d="m228.75,157.62s-.03,0-.04,0c-2.18,0-1.56,1.43-3.71,1.43h-.02c-2.16,0-1.5-1.45-3.73-1.42,0,0-.02,0-.03,0-.01,0-.03,0-.04,0-.13,0-.27,0-.42.02,2.69.26,1.4,1.8,4.22,1.8h.02c2.82,0,1.54-1.54,4.24-1.8-.18-.02-.34-.02-.49-.03Z"></path><path class="cls-4" d="m227.31,161.8c0-1.27-1.03-2.31-2.31-2.31s-2.31,1.03-2.31,2.31c.25-1.07,1.21-1.82,2.31-1.82s2.05.76,2.31,1.82Z"></path><polygon class="cls-4" points="214.64 146.41 214.64 146.41 214.64 146.41 214.64 146.41"></polygon><path class="cls-4" d="m223.36,145.39c.5.67.82,1.39.96,2.14.26,1.46-.2,3.04-1.34,4.65.13,0,.39.13.51.26,1.02-1.95,1.38-3.95,1.04-5.85-.09-.5-.22-.99-.4-1.46-2.82-2.31-6.66-2.56-9.48,1.28,2.95-2.56,6.66-2.94,8.71-1.02Z"></path><path class="cls-4" d="m219.25,146.03c.77,0,1.54,0,2.31.64.77.64,1.28.9,1.54,1.03.26.13.38-.26.26-.38-.13-.13-.51,0-1.28-.64-.77-.64-1.15-1.03-2.82-1.03h0c-2.56,0-4.1,2.05-3.85,2.18.26.13,1.54-1.79,3.85-1.79Z"></path><path class="cls-1" d="m222.34,147.82c-.83-.9-2.03-1.39-3.17-1.39s-2.23.49-2.87,1.52c.68.61,1.8.92,2.98.88-.17,0-.32-.05-.47-.12-.72-.05-1.43-.31-1.99-.76.46-.74,1.15-1.09,1.86-1.2.19-.13.4-.22.64-.22.26,0,.49.1.69.25.74.16,1.32.53,1.43.9-.41.45-.89.73-1.41.88-.18.14-.39.23-.63.25,1.01-.06,2.06-.37,2.93-1Z"></path><path class="cls-4" d="m220.03,148.58c.26-.21.44-.52.44-.89s-.19-.69-.47-.9c-.19-.15-.43-.25-.69-.25-.24,0-.45.09-.64.22-.3.21-.52.54-.52.94,0,.45.27.84.65,1.02.14.07.3.12.47.12.01,0,.03,0,.04,0,.03,0,.06-.01.08-.02.24-.02.45-.11.63-.25Z"></path><path class="cls-4" d="m221.82,149.23c1.28-.77,1.28-1.03,1.03-1.03s-.51.26-1.54.77c-1.03.51-2.56.51-5.13-.51h0c2.18,1.67,4.36,1.54,5.64.77Z"></path></g></svg>