<svg xmlns="http://www.w3.org/2000/svg" xmlns:xlink="http://www.w3.org/1999/xlink" id="Layer_1" data-name="Layer 1" viewBox="0 0 500.95 248.05"><defs><style>      .cls-1 {        fill: #00335f;      }      .cls-1, .cls-2, .cls-3 {        stroke-width: 0px;      }      .cls-4 {        clip-path: url(#clippath-2);      }      .cls-2 {        fill: none;      }      .cls-5 {        clip-path: url(#clippath-1);      }      .cls-6 {        clip-path: url(#clippath-4);      }      .cls-3 {        fill: #72c9cd;      }      .cls-7 {        clip-path: url(#clippath);      }      .cls-8 {        clip-path: url(#clippath-3);      }      .cls-9 {        clip-path: url(#clippath-5);      }    </style><clipPath id="clippath"><polygon class="cls-2" points="377.65 79.7 494.73 241.87 356.24 241.87 324.57 189.59 377.65 79.7"></polygon></clipPath><clipPath id="clippath-1"><polygon class="cls-2" points="413.16 6.17 377.65 79.7 355.71 49.32 377.21 6.17 413.16 6.17"></polygon></clipPath><clipPath id="clippath-2"><polygon class="cls-2" points="377.65 79.7 299.32 241.87 255.88 171.34 281.33 124.02 303.31 154.48 355.71 49.32 377.65 79.7"></polygon></clipPath><clipPath id="clippath-3"><polygon class="cls-2" points="355.71 49.32 303.3 154.49 281.32 124.03 255.87 171.35 242.55 149.7 296.81 53.62 324.57 6.17 355.71 49.32"></polygon></clipPath><clipPath id="clippath-4"><polygon class="cls-2" points="260.86 6.17 296.81 53.62 242.55 149.7 216.89 108.05 142.49 241.89 6.17 6.17 116.04 6.17 193.94 117.03 260.86 6.17"></polygon></clipPath><clipPath id="clippath-5"><polygon class="cls-2" points="242.57 149.7 255.88 171.35 216.91 241.89 193.94 241.89 242.57 149.7"></polygon></clipPath></defs><g class="cls-7"><rect class="cls-3" width="500.95" height="248.05"></rect></g><g class="cls-5"><rect class="cls-1" width="500.95" height="248.05"></rect></g><g class="cls-4"><rect class="cls-1" width="500.95" height="248.05"></rect></g><g class="cls-8"><rect class="cls-3" width="500.95" height="248.05"></rect></g><g class="cls-6"><rect class="cls-1" width="500.95" height="248.05"></rect></g><g class="cls-9"><rect class="cls-3" width="500.95" height="248.05"></rect></g></svg>