<svg xmlns="http://www.w3.org/2000/svg" id="Layer_1" data-name="Layer 1" viewBox="0 0 450 300"><defs><style>      .cls-1 {        fill: #0038a8;      }      .cls-1, .cls-2, .cls-3 {        stroke-width: 0px;      }      .cls-2, .cls-4 {        fill: #7b3f00;      }      .cls-5 {        fill: none;      }      .cls-5, .cls-6, .cls-7 {        stroke-width: .3px;      }      .cls-5, .cls-6, .cls-7, .cls-4 {        stroke: #7b3f00;        stroke-miterlimit: 20;      }      .cls-3 {        fill: #fff;      }      .cls-6, .cls-7 {        fill: #fcd116;      }      .cls-7, .cls-4 {        stroke-linecap: square;      }      .cls-4 {        stroke-width: .5px;      }    </style></defs><rect class="cls-3" width="450" height="300"></rect><g><rect class="cls-1" x="166.67" y="33.33" width="283.33" height="33.33"></rect><rect class="cls-1" x="166.67" y="100" width="283.33" height="33.33"></rect><rect class="cls-1" y="166.67" width="450" height="33.33"></rect><rect class="cls-1" y="233.33" width="450" height="33.33"></rect></g><g><g id="t"><g id="s"><g><path class="cls-7" d="m79.56,99.63l5.52,8.24c-22.67,16.41-8.83,26.11-24.9,31.36,9.99-9.75-1.57-10.57,6.85-30.9"></path><path class="cls-4" d="m79.56,99.63l-3.63,2.52.16.1c-6.2,10.22-7.26,18.09-8.16,24.17-.45,3.04-.86,5.65-1.9,7.88-.67,1.44-1.62,2.71-2.98,3.8,11.49-5.47.9-14.93,22.03-30.23l-5.52-8.24Z"></path><path class="cls-5" d="m75.62,101.96c-12.51,20.62-4.3,31.95-15.43,37.26"></path></g><path class="cls-6" d="m83.33,83.33h-11l11,60.5,11-60.5h-11v60.5"></path><path class="cls-2" d="m83.33,83.33h11s-11,0-11,0v60.5l11-60.5"></path></g><g id="s-2" data-name="s"><g><path class="cls-7" d="m69.14,92.19l-1.92,9.73c-27.63-4.43-24.71,12.22-39.78,4.57,13.96.17,6.36-8.59,26.69-17.01"></path><path class="cls-4" d="m69.14,92.19l-4.35-.79.05.18c-11.62,2.84-17.92,7.66-22.86,11.32-2.47,1.83-4.6,3.38-6.92,4.23-1.49.55-3.06.77-4.8.58,11.99,4.26,11.19-9.92,36.96-5.8l1.92-9.73Z"></path><path class="cls-5" d="m64.7,91.05c-23.42,5.73-25.64,19.55-37.26,15.43"></path></g><path class="cls-6" d="m83.33,83.33l-7.78-7.78-35,50.56,50.56-35-7.78-7.78-42.78,42.78"></path><path class="cls-2" d="m83.33,83.33l7.78,7.78-7.78-7.78-42.78,42.78,50.56-35"></path></g></g><g id="u"><g id="t-2" data-name="t"><g id="s-3" data-name="s"><g><path class="cls-7" d="m67.04,79.56l-8.24,5.52c-16.41-22.67-26.11-8.83-31.36-24.9,9.75,9.99,10.57-1.57,30.9,6.85"></path><path class="cls-4" d="m67.04,79.56l-2.52-3.63-.1.16c-10.22-6.2-18.09-7.26-24.17-8.16-3.04-.45-5.65-.86-7.88-1.9-1.44-.67-2.71-1.62-3.8-2.98,5.47,11.49,14.93.9,30.23,22.03l8.24-5.52Z"></path><path class="cls-5" d="m64.7,75.62c-20.62-12.51-31.95-4.31-37.26-15.43"></path></g><path class="cls-6" d="m83.33,83.33v-11l-60.5,11,60.5,11v-11H22.83"></path><path class="cls-2" d="m83.33,83.33v11s0-11,0-11H22.83l60.5,11"></path></g><g id="s-4" data-name="s"><g><path class="cls-7" d="m74.48,69.14l-9.73-1.92c4.43-27.63-12.22-24.71-4.57-39.78-.17,13.96,8.59,6.36,17.01,26.69"></path><path class="cls-4" d="m74.48,69.14l.79-4.35-.18.05c-2.84-11.62-7.66-17.92-11.32-22.86-1.83-2.47-3.38-4.6-4.23-6.92-.55-1.49-.77-3.06-.58-4.8-4.26,11.99,9.92,11.19,5.8,36.96l9.73,1.92Z"></path><path class="cls-5" d="m75.62,64.7c-5.73-23.42-19.55-25.64-15.43-37.26"></path></g><path class="cls-6" d="m83.33,83.33l7.78-7.78-50.56-35,35,50.56,7.78-7.78-42.78-42.78"></path><path class="cls-2" d="m83.33,83.33l-7.78,7.78,7.78-7.78-42.78-42.78,35,50.56"></path></g></g></g><g><g><g id="t-3" data-name="t"><g id="s-5" data-name="s"><g><path class="cls-7" d="m87.11,67.04l-5.52-8.24c22.67-16.41,8.83-26.11,24.9-31.36-9.99,9.75,1.57,10.57-6.85,30.9"></path><path class="cls-4" d="m87.11,67.04l3.63-2.52-.16-.1c6.2-10.22,7.26-18.09,8.16-24.17.45-3.04.86-5.65,1.9-7.88.67-1.44,1.62-2.71,2.98-3.8-11.49,5.47-.9,14.93-22.03,30.23l5.52,8.24Z"></path><path class="cls-5" d="m91.05,64.7c12.51-20.62,4.31-31.95,15.43-37.26"></path></g><path class="cls-6" d="m83.33,83.33h11l-11-60.5-11,60.5h11V22.83"></path><path class="cls-2" d="m83.33,83.33h-11s11,0,11,0V22.83l-11,60.5"></path></g><g id="s-6" data-name="s"><g><path class="cls-7" d="m97.52,74.48l1.92-9.73c27.63,4.43,24.71-12.22,39.78-4.57-13.96-.17-6.36,8.59-26.69,17.01"></path><path class="cls-4" d="m97.52,74.48l4.35.79-.05-.18c11.62-2.84,17.92-7.66,22.86-11.32,2.47-1.83,4.6-3.38,6.92-4.23,1.49-.55,3.06-.77,4.8-.58-11.99-4.26-11.19,9.92-36.96,5.8l-1.92,9.73Z"></path><path class="cls-5" d="m101.96,75.62c23.42-5.73,25.64-19.55,37.26-15.43"></path></g><path class="cls-6" d="m83.33,83.33l7.78,7.78,35-50.56-50.56,35,7.78,7.78,42.78-42.78"></path><path class="cls-2" d="m83.33,83.33l-7.78-7.78,7.78,7.78,42.78-42.78-50.56,35"></path></g></g><g id="u-2" data-name="u"><g id="t-4" data-name="t"><g id="s-7" data-name="s"><g><path class="cls-7" d="m99.63,87.11l8.24-5.52c16.41,22.67,26.11,8.83,31.36,24.9-9.75-9.99-10.57,1.57-30.9-6.85"></path><path class="cls-4" d="m99.63,87.1l2.52,3.63.1-.16c10.22,6.2,18.09,7.26,24.17,8.16,3.04.45,5.65.86,7.88,1.9,1.44.67,2.71,1.62,3.8,2.98-5.47-11.49-14.93-.9-30.23-22.03l-8.24,5.52Z"></path><path class="cls-5" d="m101.96,91.05c20.62,12.51,31.95,4.3,37.26,15.43"></path></g><path class="cls-6" d="m83.33,83.33v11l60.5-11-60.5-11v11h60.5"></path><path class="cls-2" d="m83.33,83.33v-11s0,11,0,11h60.5l-60.5-11"></path></g><g id="s-8" data-name="s"><g><path class="cls-7" d="m92.19,97.52l9.73,1.92c-4.43,27.63,12.22,24.71,4.57,39.78.17-13.96-8.59-6.36-17.01-26.69"></path><path class="cls-4" d="m92.19,97.52l-.79,4.35.18-.05c2.84,11.62,7.66,17.92,11.32,22.86,1.83,2.47,3.38,4.6,4.23,6.92.55,1.49.77,3.06.58,4.8,4.26-11.99-9.92-11.19-5.8-36.96l-9.73-1.92Z"></path><path class="cls-5" d="m91.05,101.96c5.73,23.42,19.55,25.64,15.43,37.26"></path></g><path class="cls-6" d="m83.33,83.33l-7.78,7.78,50.56,35-35-50.56-7.78,7.78,42.78,42.78"></path><path class="cls-2" d="m83.33,83.33l7.78-7.78-7.78,7.78,42.78,42.78-35-50.56"></path></g></g></g><circle class="cls-6" cx="83.33" cy="83.33" r="20.17"></circle></g><g><g id="right"><path class="cls-2" d="m98.18,75.27c-1.28,1.47-2.02-1.1-6.6-1.1s-5.32,2.75-6.05,2.2,3.85-3.85,5.32-4.03c1.47-.18,5.68,1.28,7.33,2.93m-5.32,1.65c1.28,1.1.18,3.48-1.1,3.48s-3.67-2.2-2.57-3.67"></path><path class="cls-2" d="m86.82,78.57c.18-2.2,2.02-2.57,4.95-2.57s4.22,2.2,5.32,2.75c-1.28,0-2.38-1.83-5.32-1.83s-2.93,0-4.95,1.83m.55.37c.73-1.1,1.65,1.1,3.67,1.1s3.12-.55,4.4-1.47-1.83,2.2-3.85,2.2-4.77-1.1-4.22-1.83"></path><path class="cls-2" d="m93.6,80.22c2.38-1.28.92-3.12,0-3.48.37.37,1.83,2.2,0,3.48m-10.27,11c1.1,0,1.47-.37,2.93-.37s4.95,2.02,6.97,1.28c-4.22,1.65-2.57.55-9.9.55h-.92m11.55,1.1c-.73-1.28-.55-.92-2.02-2.93,1.47,1.1,1.83,1.65,2.02,2.93m-10.63,1.83c4.58,0,3.85-.92,9.9-3.48-4.4.55-5.32,2.02-9.9,2.02h-.92m.92-5.32c1.28,0,1.65-.92,3.12-.92s3.48.55,4.4,1.28c.18.18-.55-1.47-2.02-1.65s-.92-2.57-2.57-2.93c0,.73.55.55.73,1.65,0,.92-1.65.92-2.02,0,.37,1.47-.73,1.47-1.65,1.47"></path></g><g id="right-2" data-name="right"><path class="cls-2" d="m68.48,75.27c1.28,1.47,2.02-1.1,6.6-1.1s5.32,2.75,6.05,2.2-3.85-3.85-5.32-4.03c-1.47-.18-5.68,1.28-7.33,2.93m5.32,1.65c-1.28,1.1-.18,3.48,1.1,3.48s3.67-2.2,2.57-3.67"></path><path class="cls-2" d="m79.85,78.57c-.18-2.2-2.02-2.57-4.95-2.57s-4.22,2.2-5.32,2.75c1.28,0,2.38-1.83,5.32-1.83s2.93,0,4.95,1.83m-.55.37c-.73-1.1-1.65,1.1-3.67,1.1s-3.12-.55-4.4-1.47,1.83,2.2,3.85,2.2,4.77-1.1,4.22-1.83"></path><path class="cls-2" d="m73.07,80.22c-2.38-1.28-.92-3.12,0-3.48-.37.37-1.83,2.2,0,3.48m10.27,11c-1.1,0-1.47-.37-2.93-.37s-4.95,2.02-6.97,1.28c4.22,1.65,2.57.55,9.9.55h.92m-11.55,1.1c.73-1.28.55-.92,2.02-2.93-1.47,1.1-1.83,1.65-2.02,2.93m10.63,1.83c-4.58,0-3.85-.92-9.9-3.48,4.4.55,5.32,2.02,9.9,2.02h.92m-.92-5.32c-1.28,0-1.65-.92-3.12-.92s-3.48.55-4.4,1.28c-.18.18.55-1.47,2.02-1.65s.92-2.57,2.57-2.93c0,.73-.55.55-.73,1.65,0,.92,1.65.92,2.02,0-.37,1.47.73,1.47,1.65,1.47"></path></g><path class="cls-2" d="m83.33,97.27c-.92,0-3.3.55,0,.55s.92-.55,0-.55"></path></g></g></g></svg>